<?xml version="1.0" encoding="utf-8"?>
<!-- Generator: Adobe Illustrator 24.1.3, SVG Export Plug-In . SVG Version: 6.00 Build 0)  -->
<svg version="1.1" id="Layer_1" xmlns="http://www.w3.org/2000/svg" xmlns:xlink="http://www.w3.org/1999/xlink" x="0px" y="0px"
	 viewBox="0 0 53.76 50.06" style="enable-background:new 0 0 53.76 50.06;" xml:space="preserve">
<style type="text/css">
	.st0{fill:url(#SVGID_1_);}
	.st1{fill:url(#SVGID_2_);}
</style>
<g>
	<linearGradient id="SVGID_1_" gradientUnits="userSpaceOnUse" x1="0.1241" y1="13.997" x2="53.6336" y2="13.997">
		<stop  offset="0" style="stop-color:#06BEB6"/>
		<stop  offset="1" style="stop-color:#1488CC"/>
	</linearGradient>
	<path class="st0" d="M0.12,24.3c0.24-0.97,0.88-1.66,1.57-2.35C8.17,15.5,14.63,9.03,21.1,2.57c2.71-2.71,6.71-3.23,9.97-1.27
		c0.59,0.35,1.13,0.82,1.62,1.3c1.89,1.85,3.75,3.73,5.63,5.6c0.02,0.02,0.06,0.04,0.13,0.09c0.02-0.15,0.04-0.28,0.04-0.4
		c0-0.91-0.02-1.81,0.01-2.72c0.05-1.52,1.04-2.73,2.43-3.01c1.38-0.28,2.81,0.38,3.38,1.68c0.22,0.51,0.32,1.11,0.32,1.67
		c0.03,2.86,0.01,5.71,0.03,8.57c0,0.26,0.13,0.58,0.31,0.76c2.52,2.55,5.07,5.08,7.6,7.62c1.33,1.34,1.43,3.09,0.27,4.4
		c-1.05,1.17-2.87,1.34-4.11,0.37c-0.23-0.18-0.45-0.39-0.66-0.6c-6.53-6.53-13.05-13.05-19.58-19.58
		c-1.16-1.15-2.05-1.15-3.21,0.01C18.7,13.63,12.14,20.2,5.57,26.76c-1.21,1.21-2.66,1.45-3.98,0.66c-0.79-0.47-1.19-1.23-1.47-2.07
		C0.12,25,0.12,24.65,0.12,24.3z"/>
	<linearGradient id="SVGID_2_" gradientUnits="userSpaceOnUse" x1="7.5325" y1="31.0086" x2="46.2252" y2="31.0086">
		<stop  offset="0" style="stop-color:#06BEB6"/>
		<stop  offset="1" style="stop-color:#1488CC"/>
	</linearGradient>
	<path class="st1" d="M31.85,49.91c0-4.56,0-9.07,0-13.6c-3.33,0-6.61,0-9.96,0c0,4.54,0,9.05,0,13.6c-0.2,0.01-0.33,0.03-0.46,0.03
		c-2.73,0-5.47,0.01-8.2,0c-2.95-0.02-5.16-1.9-5.63-4.78c-0.05-0.32-0.05-0.66-0.05-0.99c0-4.14,0.01-8.29-0.01-12.43
		c0-0.66,0.21-1.16,0.67-1.62C14,24.34,19.79,18.55,25.57,12.76c0.92-0.92,1.69-0.92,2.6-0.01c5.79,5.79,11.57,11.57,17.37,17.35
		c0.46,0.46,0.69,0.96,0.68,1.62c-0.02,4.23,0,8.46-0.01,12.69c-0.01,2.71-1.92,4.96-4.58,5.44c-0.34,0.06-0.69,0.08-1.04,0.08
		c-2.77,0.01-5.54,0-8.31,0C32.17,49.94,32.05,49.92,31.85,49.91z"/>
</g>
</svg>
