<?xml version="1.0" encoding="utf-8"?>
<!-- Generator: Adobe Illustrator 24.1.3, SVG Export Plug-In . SVG Version: 6.00 Build 0)  -->
<svg version="1.1" id="Layer_1" xmlns="http://www.w3.org/2000/svg" xmlns:xlink="http://www.w3.org/1999/xlink" x="0px" y="0px"
	 viewBox="0 0 35.23 35.23" style="enable-background:new 0 0 35.23 35.23;" xml:space="preserve">
<style type="text/css">
	.st0{fill:url(#SVGID_1_);}
	.st1{fill:#FFFFFF;}
</style>
<g>
	<linearGradient id="SVGID_1_" gradientUnits="userSpaceOnUse" x1="0.1153" y1="17.6153" x2="35.1153" y2="17.6153">
		<stop  offset="0" style="stop-color:#1488CC"/>
		<stop  offset="1" style="stop-color:#06BEB6"/>
	</linearGradient>
	<circle class="st0" cx="17.62" cy="17.62" r="17.5"/>
	<g>
		<path class="st1" d="M30.34,22.99c-1.01,0.49-2.09,0.79-3.19,0.96c-0.68,0.1-1.36,0.16-2.09,0.24c0-0.17,0-0.3,0-0.43
			c0.01-0.83,0-1.66-0.26-2.46c-0.59-1.79-1.77-3.01-3.53-3.68c-0.07-0.03-0.15-0.05-0.26-0.1c0.89-0.89,1.35-1.95,1.41-3.19
			c1.08,0,2.13-0.01,3.18,0.01c0.38,0.01,0.76,0.06,1.13,0.15c1.88,0.46,3.28,2.02,3.56,3.94c0.01,0.06,0.03,0.12,0.05,0.19
			C30.34,20.07,30.34,21.53,30.34,22.99z"/>
		<path class="st1" d="M24.17,24.58c0,0.66-0.01,1.33,0.01,1.99c0.01,0.21-0.08,0.31-0.25,0.39c-0.96,0.44-1.96,0.7-2.99,0.86
			c-3.06,0.48-6.05,0.12-9-0.76c-0.49-0.15-0.49-0.14-0.49-0.65c0-1.18-0.02-2.37,0.01-3.55c0.05-2.49,2-4.51,4.49-4.63
			c1.3-0.06,2.62-0.05,3.92,0.01c1.86,0.09,3.64,1.62,4.12,3.44c0.2,0.76,0.18,1.52,0.18,2.29C24.17,24.16,24.17,24.37,24.17,24.58z
			"/>
		<path class="st1" d="M10.58,24.2c-1.08-0.17-2.1-0.29-3.1-0.49c-0.8-0.16-1.58-0.4-2.38-0.6C4.94,23.06,4.89,23,4.89,22.83
			c0.01-1.24-0.01-2.48,0.01-3.73c0.03-2.67,2.1-4.74,4.77-4.77c1.06-0.01,2.12,0,3.18,0c0.11,0,0.21,0,0.34,0
			c0.07,1.25,0.52,2.3,1.4,3.18C11.54,18.68,10.32,20.96,10.58,24.2z"/>
		<path class="st1" d="M14.08,14.19c0.01-2.06,1.67-3.72,3.73-3.73c2.05,0,3.73,1.68,3.73,3.73c0,2.06-1.69,3.74-3.75,3.73
			C15.72,17.91,14.07,16.25,14.08,14.19z"/>
		<path class="st1" d="M7.53,10.35c0-1.9,1.47-3.55,3.32-3.71c1.97-0.18,3.72,1.11,4.07,3c0.02,0.11,0.04,0.23,0.05,0.34
			c0.05,0.34-0.01,0.6-0.31,0.86c-0.74,0.64-1.19,1.47-1.37,2.44c-0.03,0.16-0.11,0.25-0.25,0.33C10.55,14.96,7.53,13.17,7.53,10.35
			z"/>
		<path class="st1" d="M23.98,6.62c1.97,0,3.64,1.57,3.72,3.5c0.09,2.05-1.36,3.74-3.37,3.94c-0.6,0.06-1.19-0.03-1.75-0.26
			c-0.13-0.05-0.19-0.11-0.21-0.26c-0.21-1.34-0.88-2.39-1.99-3.15c-0.15-0.1-0.13-0.21-0.12-0.34C20.41,8.11,22.04,6.61,23.98,6.62
			z"/>
	</g>
</g>
</svg>
