<?xml version="1.0" encoding="utf-8"?>
<!-- Generator: Adobe Illustrator 24.1.3, SVG Export Plug-In . SVG Version: 6.00 Build 0)  -->
<svg version="1.1" id="Layer_1" xmlns="http://www.w3.org/2000/svg" xmlns:xlink="http://www.w3.org/1999/xlink" x="0px" y="0px"
	 viewBox="0 0 35.18 35.18" style="enable-background:new 0 0 35.18 35.18;" xml:space="preserve">
<style type="text/css">
	.st0{fill:url(#SVGID_1_);}
	.st1{fill:#FFFFFF;}
</style>
<g>
	<linearGradient id="SVGID_1_" gradientUnits="userSpaceOnUse" x1="0.0875" y1="17.5875" x2="35.0875" y2="17.5875">
		<stop  offset="0" style="stop-color:#1488CC"/>
		<stop  offset="1" style="stop-color:#06BEB6"/>
	</linearGradient>
	<circle class="st0" cx="17.59" cy="17.59" r="17.5"/>
	<g>
		<path class="st1" d="M26.3,27.59c-5.8,0-11.6,0-17.4,0c-0.1-0.02-0.19-0.04-0.29-0.07c-1-0.29-1.56-1.05-1.56-2.12
			c0-4.16,0-8.32,0-12.48c0-0.08,0-0.15,0-0.23c7.04,0,14.05,0,21.08,0c0,0.09,0,0.18,0,0.26c0,1.1,0,2.21,0,3.31
			c0,3.04,0,6.07,0,9.11c0,0.75-0.23,1.39-0.86,1.82C26.98,27.37,26.62,27.45,26.3,27.59z M12.53,19.48
			c-0.01,2.78,2.26,5.05,5.05,5.06c2.78,0.01,5.06-2.26,5.06-5.05c0.01-2.78-2.26-5.05-5.05-5.06
			C14.81,14.43,12.54,16.69,12.53,19.48z"/>
		<path class="st1" d="M11.04,5.59c0.37,0.14,0.52,0.41,0.51,0.8c-0.01,0.32,0,0.64,0.01,0.96l0.01,0c-0.43,0-0.86,0-1.3,0l0.01,0
			c0-0.31,0.01-0.62-0.01-0.92c-0.03-0.39,0.11-0.68,0.48-0.84C10.84,5.59,10.94,5.59,11.04,5.59z"/>
		<path class="st1" d="M23.64,7.35c0-0.31,0.01-0.62-0.01-0.92c-0.03-0.39,0.11-0.68,0.48-0.84c0.1,0,0.2,0,0.3,0
			c0.37,0.14,0.52,0.41,0.5,0.8c-0.01,0.32,0,0.64,0.01,0.96c0,0,0.01,0,0.01,0C24.49,7.34,24.06,7.35,23.64,7.35L23.64,7.35z"/>
		<path class="st1" d="M21.91,5.59c0.37,0.17,0.5,0.47,0.47,0.86c-0.02,0.3,0,0.6,0,0.9l0.01,0c-0.43,0-0.86,0-1.3,0l0.01,0
			c0-0.3,0.02-0.6,0-0.9c-0.03-0.4,0.1-0.69,0.47-0.86C21.68,5.59,21.8,5.59,21.91,5.59z"/>
		<path class="st1" d="M13.58,5.59c0.37,0.14,0.51,0.42,0.49,0.81c-0.02,0.31,0,0.63,0,0.96c-0.42,0-0.83,0-1.24,0
			c0-0.43-0.02-0.87,0.01-1.31c0.02-0.24,0.24-0.35,0.44-0.45C13.38,5.59,13.48,5.59,13.58,5.59z"/>
		<path class="st1" d="M22.38,7.35c0.42,0,0.83,0,1.25,0l-0.01,0c0,0.39,0,0.79,0,1.18c0.01,0.3,0.19,0.52,0.47,0.6
			c0.26,0.07,0.56-0.02,0.69-0.26c0.07-0.14,0.1-0.31,0.11-0.47c0.02-0.35,0.02-0.7,0.02-1.05c0,0-0.01,0-0.01,0
			c0.46,0.01,0.92,0.02,1.37,0.04c0.93,0.06,1.76,0.89,1.81,1.82c0.03,0.68,0.02,1.36,0.03,2.04c0,0.03-0.01,0.07-0.01,0.12
			c-7.02,0-14.03,0-21.04,0c-0.01-0.01-0.02-0.02-0.02-0.03c0.01-0.74-0.02-1.49,0.04-2.23C7.16,8.23,8,7.45,8.88,7.39
			c0.46-0.03,0.93-0.03,1.39-0.05c0,0-0.01,0-0.01,0c0,0.39,0,0.77,0,1.16c0.01,0.29,0.17,0.52,0.43,0.61
			c0.43,0.15,0.83-0.15,0.85-0.63c0.01-0.38,0.01-0.76,0.02-1.14l-0.01,0c0.41,0,0.81,0,1.25,0c0,0.42-0.01,0.81,0,1.19
			c0.02,0.44,0.45,0.72,0.85,0.56c0.25-0.1,0.39-0.29,0.4-0.56c0.01-0.31,0.01-0.62,0.01-0.92c0-0.08,0-0.15,0-0.26
			c0.11,0,0.19,0,0.27,0c2.16,0,4.32,0,6.48,0c0.09,0,0.18-0.01,0.28-0.02c0,0-0.01,0-0.01,0c0,0.36-0.01,0.73,0.01,1.09
			c0.01,0.14,0.04,0.3,0.11,0.42c0.14,0.24,0.43,0.33,0.69,0.26c0.28-0.08,0.46-0.31,0.47-0.62C22.39,8.12,22.39,7.73,22.38,7.35
			L22.38,7.35z"/>
		<path class="st1" d="M17.59,23.27c-2.08,0-3.79-1.72-3.79-3.79c0.01-2.08,1.69-3.76,3.78-3.77c2.08-0.01,3.78,1.68,3.79,3.77
			C21.37,21.57,19.67,23.27,17.59,23.27z M17.08,19.73c-0.28-0.28-0.54-0.55-0.8-0.81c-0.15-0.15-0.33-0.23-0.54-0.21
			c-0.26,0.03-0.44,0.17-0.53,0.41c-0.1,0.26-0.02,0.49,0.17,0.69c0.39,0.4,0.79,0.79,1.18,1.19c0.36,0.35,0.7,0.35,1.06-0.01
			c0.69-0.69,1.39-1.39,2.08-2.08c0.05-0.05,0.09-0.09,0.13-0.14c0.17-0.2,0.2-0.42,0.11-0.66c-0.09-0.23-0.28-0.36-0.52-0.39
			c-0.24-0.03-0.42,0.09-0.59,0.26C18.26,18.56,17.68,19.13,17.08,19.73z"/>
	</g>
</g>
</svg>
