<?xml version="1.0" encoding="utf-8"?>
<!-- Generator: Adobe Illustrator 24.1.3, SVG Export Plug-In . SVG Version: 6.00 Build 0)  -->
<svg version="1.1" id="Layer_1" xmlns="http://www.w3.org/2000/svg" xmlns:xlink="http://www.w3.org/1999/xlink" x="0px" y="0px"
	 viewBox="0 0 35.12 35.12" style="enable-background:new 0 0 35.12 35.12;" xml:space="preserve">
<style type="text/css">
	.st0{fill:url(#SVGID_1_);}
	.st1{fill:#FFFFFF;}
</style>
<g>
	<linearGradient id="SVGID_1_" gradientUnits="userSpaceOnUse" x1="0.0597" y1="17.5597" x2="35.0597" y2="17.5597">
		<stop  offset="0" style="stop-color:#1488CC"/>
		<stop  offset="1" style="stop-color:#06BEB6"/>
	</linearGradient>
	<circle class="st0" cx="17.56" cy="17.56" r="17.5"/>
	<g>
		<path class="st1" d="M29.18,18.1c-0.18,0.39-0.49,0.52-0.91,0.51c-0.82-0.02-1.65,0-2.47-0.01c-0.15,0-0.22,0.03-0.26,0.19
			c-0.41,1.42-1.76,2.36-3.23,2.25c-1.46-0.11-2.67-1.24-2.87-2.7c-0.22-1.61,0.85-3.12,2.47-3.48c1.57-0.35,3.18,0.62,3.64,2.19
			c0.05,0.16,0.11,0.2,0.26,0.19c0.82-0.01,1.65,0.01,2.47-0.01c0.42-0.01,0.73,0.11,0.91,0.51C29.18,17.85,29.18,17.98,29.18,18.1z
			 M24.28,17.92c0-0.98-0.77-1.76-1.74-1.77c-0.96-0.01-1.76,0.79-1.76,1.76c0,0.96,0.78,1.76,1.75,1.77
			C23.48,19.69,24.28,18.89,24.28,17.92z"/>
		<path class="st1" d="M29.18,26.36c-0.18,0.39-0.49,0.51-0.91,0.51c-3.52-0.01-7.05-0.01-10.57-0.01c-0.12,0-0.24,0-0.36-0.03
			c-0.33-0.09-0.53-0.39-0.5-0.72c0.03-0.33,0.3-0.58,0.63-0.61c0.09-0.01,0.18,0,0.27,0c3.51,0,7.02,0,10.53-0.01
			c0.42,0,0.73,0.11,0.91,0.51C29.18,26.11,29.18,26.24,29.18,26.36z"/>
		<path class="st1" d="M29.18,9.84c-0.18,0.4-0.49,0.51-0.91,0.51c-3.3-0.01-6.59-0.01-9.89-0.01c-0.47,0-0.77-0.26-0.78-0.67
			c-0.01-0.36,0.26-0.65,0.62-0.69c0.09-0.01,0.18,0,0.27,0c3.26,0,6.52,0,9.78-0.01c0.42,0,0.73,0.11,0.91,0.51
			C29.18,9.59,29.18,9.71,29.18,9.84z"/>
		<path class="st1" d="M8.37,10.34c-0.56,0-1.12,0-1.68,0c-0.44,0-0.75-0.28-0.74-0.68c0-0.4,0.3-0.68,0.75-0.68
			c1.13,0,2.27,0,3.4,0c0.15,0,0.22-0.04,0.26-0.19c0.44-1.53,1.95-2.47,3.55-2.21c1.5,0.24,2.62,1.63,2.57,3.18
			c-0.05,1.56-1.2,2.8-2.8,3.01c-1.44,0.19-2.91-0.8-3.32-2.24c-0.04-0.16-0.11-0.2-0.26-0.19C9.52,10.34,8.94,10.34,8.37,10.34z
			 M11.61,9.64c0,0.98,0.76,1.76,1.74,1.78c0.95,0.02,1.76-0.79,1.77-1.75c0.01-0.96-0.78-1.76-1.75-1.78
			C12.41,7.87,11.61,8.67,11.61,9.64z"/>
		<path class="st1" d="M8,25.49c0.44,0,0.88-0.01,1.32,0c0.16,0,0.23-0.04,0.28-0.21c0.4-1.38,1.68-2.29,3.13-2.24
			c1.39,0.05,2.62,1.07,2.93,2.45c0.36,1.64-0.65,3.29-2.27,3.71c-1.63,0.42-3.3-0.52-3.78-2.14c-0.05-0.16-0.11-0.21-0.27-0.21
			c-0.89,0.01-1.78,0.01-2.68,0c-0.51,0-0.84-0.49-0.65-0.94c0.12-0.28,0.34-0.42,0.64-0.42C7.09,25.49,7.55,25.49,8,25.49z
			 M10.84,26.16c0,0.98,0.77,1.76,1.74,1.78c0.95,0.01,1.76-0.79,1.77-1.75c0.01-0.97-0.78-1.76-1.75-1.77
			C11.64,24.4,10.84,25.19,10.84,26.16z"/>
		<path class="st1" d="M12.12,18.6c-1.81,0-3.61,0-5.42,0c-0.54,0-0.89-0.45-0.71-0.92c0.1-0.26,0.3-0.41,0.58-0.44
			c0.07-0.01,0.15,0,0.23,0c3.55,0,7.09,0,10.64,0c0.13,0,0.26,0,0.38,0.04c0.31,0.09,0.51,0.39,0.47,0.71
			c-0.03,0.32-0.29,0.57-0.61,0.61c-0.08,0.01-0.17,0.01-0.25,0.01C15.66,18.6,13.89,18.6,12.12,18.6z"/>
	</g>
</g>
</svg>
