<?xml version="1.0" encoding="utf-8"?>
<!-- Generator: Adobe Illustrator 24.1.3, SVG Export Plug-In . SVG Version: 6.00 Build 0)  -->
<svg version="1.1" id="Layer_1" xmlns="http://www.w3.org/2000/svg" xmlns:xlink="http://www.w3.org/1999/xlink" x="0px" y="0px"
	 viewBox="0 0 26.83 26.81" style="enable-background:new 0 0 26.83 26.81;" xml:space="preserve">
<style type="text/css">
	.st0{fill:url(#SVGID_1_);}
	.st1{fill:url(#SVGID_2_);}
</style>
<g>
	<linearGradient id="SVGID_1_" gradientUnits="userSpaceOnUse" x1="0.1517" y1="13.406" x2="26.6773" y2="13.406">
		<stop  offset="0" style="stop-color:#1488CC"/>
		<stop  offset="1" style="stop-color:#06BEB6"/>
	</linearGradient>
	<path class="st0" d="M0.15,20.39c0.05-0.22,0.09-0.43,0.15-0.65c0.19-0.76,0.57-1.42,1.1-1.99c0.05-0.06,0.11-0.11,0.16-0.17
		C7.01,12.15,12.45,6.72,17.88,1.27c1.33-1.34,3.37-1.48,4.77-0.38c0.24,0.19,0.46,0.42,0.68,0.64c0.75,0.75,1.5,1.5,2.25,2.25
		c1.47,1.48,1.47,3.64,0,5.11c-4.31,4.31-8.62,8.62-12.92,12.93c-0.39,0.39-0.83,0.56-1.36,0.41c-0.48-0.14-0.79-0.47-0.91-0.97
		c-0.09-0.41,0.01-0.79,0.28-1.11c0.08-0.09,0.17-0.18,0.25-0.26c3.3-3.3,6.6-6.6,9.91-9.9C20.9,9.92,21,9.88,21.06,9.83
		c-1.38-1.38-2.7-2.7-4.03-4.04c-0.06,0.05-0.12,0.12-0.19,0.18c-4.46,4.46-8.91,8.91-13.37,13.36c-0.51,0.51-0.75,1.08-0.73,1.8
		c0.03,0.96,0.01,1.93,0.01,2.92c0.1,0,0.18,0.01,0.26,0.01c0.97,0,1.93,0,2.9,0c0.55,0,1.02-0.21,1.42-0.59
		c0.28-0.27,0.62-0.41,1.01-0.37c0.54,0.05,0.92,0.34,1.11,0.84c0.19,0.52,0.08,0.99-0.32,1.38c-0.7,0.7-1.55,1.11-2.52,1.27
		c-0.07,0.01-0.13,0.03-0.19,0.05c-1.74,0-3.49,0-5.23,0c-0.53-0.17-0.87-0.51-1.04-1.04C0.15,23.88,0.15,22.14,0.15,20.39z
		 M18.93,3.9c1.34,1.34,2.66,2.66,3.97,3.98c0.31-0.3,0.65-0.6,0.96-0.94c0.32-0.36,0.32-0.88-0.02-1.23
		c-0.9-0.92-1.8-1.83-2.73-2.73c-0.36-0.35-0.9-0.34-1.27,0C19.52,3.28,19.22,3.6,18.93,3.9z"/>
	<linearGradient id="SVGID_2_" gradientUnits="userSpaceOnUse" x1="12.4032" y1="25.3654" x2="26.6692" y2="25.3654">
		<stop  offset="0" style="stop-color:#1488CC"/>
		<stop  offset="1" style="stop-color:#06BEB6"/>
	</linearGradient>
	<path class="st1" d="M13.46,26.66c-0.13-0.05-0.26-0.1-0.38-0.16c-0.51-0.27-0.77-0.85-0.65-1.42c0.11-0.54,0.62-0.97,1.18-1
		c0.05,0,0.1,0,0.16,0c3.85,0,7.7,0,11.55,0c0.8,0,1.38,0.58,1.36,1.35c-0.02,0.52-0.35,0.97-0.85,1.16
		c-0.06,0.02-0.12,0.05-0.18,0.08C21.58,26.66,17.52,26.66,13.46,26.66z"/>
</g>
</svg>
