<?xml version="1.0" encoding="utf-8"?>
<!-- Generator: Adobe Illustrator 24.1.3, SVG Export Plug-In . SVG Version: 6.00 Build 0)  -->
<svg version="1.1" id="Layer_1" xmlns="http://www.w3.org/2000/svg" xmlns:xlink="http://www.w3.org/1999/xlink" x="0px" y="0px"
	 viewBox="0 0 36.18 36.18" style="enable-background:new 0 0 36.18 36.18;" xml:space="preserve">
<style type="text/css">
	.st0{fill:none;stroke:url(#SVGID_1_);stroke-miterlimit:10;}
	.st1{fill:url(#SVGID_2_);}
	.st2{fill:url(#SVGID_3_);}
</style>
<g>
	<g>
		<linearGradient id="SVGID_1_" gradientUnits="userSpaceOnUse" x1="0.0875" y1="18.0875" x2="36.0875" y2="18.0875">
			<stop  offset="0" style="stop-color:#1488CC"/>
			<stop  offset="1" style="stop-color:#06BEB6"/>
		</linearGradient>
		<circle class="st0" cx="18.09" cy="18.09" r="17.5"/>
	</g>
	<g>
		<g>
			<linearGradient id="SVGID_2_" gradientUnits="userSpaceOnUse" x1="5.8053" y1="12.5741" x2="19.3428" y2="12.5741">
				<stop  offset="0" style="stop-color:#06BEB6"/>
				<stop  offset="1" style="stop-color:#1488CC"/>
			</linearGradient>
			<path class="st1" d="M18.09,19.34H7.06c-0.69,0-1.26-0.56-1.26-1.26s0.56-1.26,1.26-1.26h9.77V7.06c0-0.69,0.56-1.26,1.26-1.26
				c0.69,0,1.26,0.56,1.26,1.26v11.03C19.34,18.78,18.78,19.34,18.09,19.34z"/>
		</g>
		<g>
			<linearGradient id="SVGID_3_" gradientUnits="userSpaceOnUse" x1="16.8322" y1="23.6005" x2="30.3689" y2="23.6005">
				<stop  offset="0" style="stop-color:#1488CC"/>
				<stop  offset="1" style="stop-color:#06BEB6"/>
			</linearGradient>
			<path class="st2" d="M18.09,30.37c-0.69,0-1.26-0.56-1.26-1.26V18.09c0-0.69,0.56-1.26,1.26-1.26h11.03
				c0.69,0,1.26,0.56,1.26,1.26s-0.56,1.26-1.26,1.26h-9.77v9.77C19.34,29.81,18.78,30.37,18.09,30.37z"/>
		</g>
	</g>
</g>
</svg>
