<?xml version="1.0" encoding="utf-8"?>
<!-- Generator: Adobe Illustrator 24.1.3, SVG Export Plug-In . SVG Version: 6.00 Build 0)  -->
<svg version="1.1" id="Layer_1" xmlns="http://www.w3.org/2000/svg" xmlns:xlink="http://www.w3.org/1999/xlink" x="0px" y="0px"
	 viewBox="0 0 35.11 35.11" style="enable-background:new 0 0 35.11 35.11;" xml:space="preserve">
<style type="text/css">
	.st0{fill:url(#SVGID_1_);}
	.st1{filter:url(#Adobe_OpacityMaskFilter);}
	.st2{mask:url(#SVGID_2_);}
	.st3{fill:#FFFFFF;}
</style>
<g>
	<linearGradient id="SVGID_1_" gradientUnits="userSpaceOnUse" x1="0.0559" y1="17.5559" x2="35.0559" y2="17.5559">
		<stop  offset="0" style="stop-color:#1488CC"/>
		<stop  offset="1" style="stop-color:#06BEB6"/>
	</linearGradient>
	<circle class="st0" cx="17.56" cy="17.56" r="17.5"/>
	<defs>
		<filter id="Adobe_OpacityMaskFilter" filterUnits="userSpaceOnUse" x="7.1" y="4.06" width="20.92" height="25">
			<feFlood  style="flood-color:white;flood-opacity:1" result="back"/>
			<feBlend  in="SourceGraphic" in2="back" mode="normal"/>
		</filter>
	</defs>
	<mask maskUnits="userSpaceOnUse" x="7.1" y="4.06" width="20.92" height="25" id="SVGID_2_">
		<g class="st1">
			<path d="M18.57,22.5c-0.59-0.59-1.55-0.59-2.15,0c-0.06,0.06-0.11,0.12-0.15,0.18c-0.11,0.15-0.05,0.35,0.12,0.42
				c0.12,0.05,0.26,0.01,0.34-0.1c0.31-0.43,0.91-0.52,1.34-0.21c0.43,0.31,0.52,0.91,0.21,1.34c-0.31,0.43-0.91,0.52-1.34,0.21
				c-0.02-0.01-0.04-0.03-0.05-0.04l0.71-0.51l0.06,0.08l0.06-0.26l0.06-0.26l-0.26-0.02l-0.26-0.02l0.07,0.1l-0.73,0.53l-0.49,0.2
				c0.32,0.78,1.2,1.15,1.98,0.83c0.78-0.32,1.15-1.2,0.83-1.98C18.83,22.81,18.72,22.64,18.57,22.5z"/>
		</g>
	</mask>
	<g class="st2">
		<g>
			<path class="st3" d="M17.56,14.52c2.89,0,5.24-2.34,5.23-5.22c0-2.9-2.34-5.24-5.23-5.24c-2.9,0-5.22,2.34-5.23,5.26
				C12.34,12.17,14.68,14.52,17.56,14.52z M27.1,27.81h-2.49v-0.12c0-2.67,0-5.34,0-8.01c0-0.15-0.03-0.3-0.11-0.43
				c-0.18-0.3-0.45-0.42-0.8-0.42c-4.1,0-8.2,0-12.3,0c-0.06,0-0.12,0-0.17,0.01c-0.42,0.07-0.7,0.41-0.7,0.85c0,2.66,0,5.31,0,7.97
				v0.15h-2.5c0,0.13,0,0.24,0,0.36c0,0.53,0.35,0.89,0.88,0.89c5.77,0,11.54,0,17.31,0c0.02,0,0.05,0,0.07,0
				c0.34-0.02,0.59-0.18,0.74-0.49C27.14,28.33,27.09,28.07,27.1,27.81z M28,24.12c-0.08-0.44-0.15-0.88-0.22-1.32
				c-0.23-1.38-0.46-2.76-0.7-4.14c-0.05-0.32-0.1-0.64-0.22-0.94c-0.21-0.49-0.51-0.91-0.97-1.21c-0.7-0.45-1.43-0.85-2.19-1.17
				c-0.88-0.37-1.78-0.65-2.72-0.81c-0.04-0.01-0.09,0.01-0.13,0.02c-0.29,0.15-0.58,0.32-0.88,0.45c-0.99,0.42-2.02,0.56-3.08,0.44
				c-0.92-0.1-1.78-0.41-2.57-0.9c-0.03-0.02-0.08-0.03-0.12-0.02c-0.5,0.07-0.99,0.21-1.47,0.36c-1.23,0.39-2.39,0.94-3.48,1.63
				c-0.42,0.26-0.75,0.58-0.91,1.05c-0.1,0.28-0.18,0.56-0.24,0.85c-0.33,1.85-0.66,3.71-0.97,5.56c-0.09,0.55,0.11,1.01,0.57,1.32
				c0.69,0.47,1.38,0.92,2.08,1.37c0.03,0.02,0.06,0.03,0.1,0.06v-0.11c0-2.31,0-4.63,0-6.94c0-0.86,0.66-1.51,1.51-1.51
				c4.12,0,8.24,0,12.35,0c0.87,0,1.53,0.65,1.53,1.52c0,2.23,0,4.47,0,6.7v0.15c0.04-0.02,0.07-0.04,0.1-0.06
				c0.2-0.12,0.4-0.25,0.6-0.38c0.54-0.34,1.08-0.67,1.61-1.01C27.92,24.89,28.07,24.54,28,24.12z"/>
		</g>
	</g>
</g>
</svg>
