<?xml version="1.0" encoding="utf-8"?>
<!-- Generator: Adobe Illustrator 24.1.3, SVG Export Plug-In . SVG Version: 6.00 Build 0)  -->
<svg version="1.1" id="Layer_1" xmlns="http://www.w3.org/2000/svg" xmlns:xlink="http://www.w3.org/1999/xlink" x="0px" y="0px"
	 viewBox="0 0 181.41 55.21" style="enable-background:new 0 0 181.41 55.21;" xml:space="preserve">
<style type="text/css">
	.st0{fill:url(#SVGID_1_);}
	.st1{fill:url(#SVGID_2_);}
	.st2{fill:url(#SVGID_3_);}
	.st3{fill:url(#SVGID_4_);}
	.st4{fill:url(#SVGID_5_);}
	.st5{fill:url(#SVGID_6_);}
	.st6{fill:url(#SVGID_7_);}
	.st7{fill:url(#SVGID_8_);}
	.st8{fill:url(#SVGID_9_);}
	.st9{fill:url(#SVGID_10_);}
	.st10{fill:url(#SVGID_11_);}
	.st11{fill:url(#SVGID_12_);}
	.st12{fill:url(#SVGID_13_);}
	.st13{fill:url(#SVGID_14_);}
	.st14{fill:url(#SVGID_15_);}
	.st15{fill:url(#SVGID_16_);}
	.st16{fill:url(#SVGID_17_);}
</style>
<g>
	<g>
		<g>
			<g>
				<linearGradient id="SVGID_1_" gradientUnits="userSpaceOnUse" x1="0.2729" y1="8.0749" x2="16.2565" y2="8.0749">
					<stop  offset="0" style="stop-color:#1488CC"/>
					<stop  offset="1" style="stop-color:#06BEB6"/>
				</linearGradient>
				<polygon class="st0" points="2.75,16.07 0.27,16.07 0.27,0.08 16.26,0.08 16.26,2.56 2.75,2.56 				"/>
			</g>
			<g>
				<linearGradient id="SVGID_2_" gradientUnits="userSpaceOnUse" x1="36.3264" y1="8.0749" x2="52.31" y2="8.0749">
					<stop  offset="0" style="stop-color:#1488CC"/>
					<stop  offset="1" style="stop-color:#06BEB6"/>
				</linearGradient>
				<polygon class="st1" points="52.31,16.07 49.83,16.07 49.83,2.56 36.33,2.56 36.33,0.08 52.31,0.08 				"/>
			</g>
			<g>
				<linearGradient id="SVGID_3_" gradientUnits="userSpaceOnUse" x1="0.2729" y1="44.1284" x2="16.2565" y2="44.1284">
					<stop  offset="0" style="stop-color:#1488CC"/>
					<stop  offset="1" style="stop-color:#06BEB6"/>
				</linearGradient>
				<polygon class="st2" points="16.26,52.12 0.27,52.12 0.27,36.14 2.75,36.14 2.75,49.64 16.26,49.64 				"/>
			</g>
			<g>
				<linearGradient id="SVGID_4_" gradientUnits="userSpaceOnUse" x1="36.3264" y1="44.1284" x2="52.31" y2="44.1284">
					<stop  offset="0" style="stop-color:#1488CC"/>
					<stop  offset="1" style="stop-color:#06BEB6"/>
				</linearGradient>
				<polygon class="st3" points="52.31,52.12 36.33,52.12 36.33,49.64 49.83,49.64 49.83,36.14 52.31,36.14 				"/>
			</g>
			<g>
				<g>
					<linearGradient id="SVGID_5_" gradientUnits="userSpaceOnUse" x1="32.2314" y1="24.2236" x2="45.0698" y2="24.2236">
						<stop  offset="0" style="stop-color:#1488CC"/>
						<stop  offset="1" style="stop-color:#06BEB6"/>
					</linearGradient>
					<path class="st4" d="M32.23,32.59l9.81-16.73c1.99,3.05,3.03,6.56,3.03,10.21c0,2.26-0.41,4.51-1.18,6.52H32.23z"/>
				</g>
				<g>
					<linearGradient id="SVGID_6_" gradientUnits="userSpaceOnUse" x1="9.7001" y1="12.3926" x2="28.8676" y2="12.3926">
						<stop  offset="0" style="stop-color:#1488CC"/>
						<stop  offset="1" style="stop-color:#06BEB6"/>
					</linearGradient>
					<path class="st5" d="M9.7,17.27c2.8-5.13,7.91-8.82,13.54-9.75l5.63,9.75H9.7z"/>
				</g>
				<g>
					<linearGradient id="SVGID_7_" gradientUnits="userSpaceOnUse" x1="25.3203" y1="15.7254" x2="40.8076" y2="15.7254">
						<stop  offset="0" style="stop-color:#1488CC"/>
						<stop  offset="1" style="stop-color:#06BEB6"/>
					</linearGradient>
					<path class="st6" d="M25.32,7.33c0.32-0.01,0.64-0.01,0.97-0.01c5.66,0,10.93,2.5,14.52,6.87l-5.8,9.95L25.32,7.33z"/>
				</g>
				<g>
					<linearGradient id="SVGID_8_" gradientUnits="userSpaceOnUse" x1="7.5131" y1="27.7707" x2="20.3545" y2="27.7707">
						<stop  offset="0" style="stop-color:#1488CC"/>
						<stop  offset="1" style="stop-color:#06BEB6"/>
					</linearGradient>
					<path class="st7" d="M10.54,36.33c-1.98-3.05-3.03-6.57-3.03-10.23c0-2.36,0.45-4.73,1.3-6.88h11.54l-2.88,5.12l-0.12,0.18
						L10.54,36.33z"/>
				</g>
				<g>
					<linearGradient id="SVGID_9_" gradientUnits="userSpaceOnUse" x1="23.5503" y1="39.5714" x2="43.0566" y2="39.5714">
						<stop  offset="0" style="stop-color:#1488CC"/>
						<stop  offset="1" style="stop-color:#06BEB6"/>
					</linearGradient>
					<path class="st8" d="M23.55,34.54h19.51c-2.67,5.36-7.74,9.09-13.71,10.06L23.55,34.54z"/>
				</g>
				<g>
					<linearGradient id="SVGID_10_" gradientUnits="userSpaceOnUse" x1="11.7724" y1="36.3632" x2="27.2707" y2="36.3632">
						<stop  offset="0" style="stop-color:#1488CC"/>
						<stop  offset="1" style="stop-color:#06BEB6"/>
					</linearGradient>
					<path class="st9" d="M26.29,44.88c-5.66,0-10.93-2.5-14.52-6.88l5.87-10.16l9.63,17.01C26.93,44.87,26.61,44.88,26.29,44.88z"
						/>
				</g>
			</g>
			<g>
				<linearGradient id="SVGID_11_" gradientUnits="userSpaceOnUse" x1="28.6897" y1="27.3266" x2="29.8152" y2="27.3266">
					<stop  offset="0" style="stop-color:#1488CC"/>
					<stop  offset="1" style="stop-color:#06BEB6"/>
				</linearGradient>
				<path class="st10" d="M29.82,27.33c0-0.31-0.25-0.56-0.56-0.56c-0.31,0-0.56,0.25-0.56,0.56c0,0.31,0.25,0.56,0.56,0.56
					C29.56,27.89,29.82,27.64,29.82,27.33z"/>
				<linearGradient id="SVGID_12_" gradientUnits="userSpaceOnUse" x1="18.7055" y1="25.8573" x2="33.8773" y2="25.8573">
					<stop  offset="0" style="stop-color:#1488CC"/>
					<stop  offset="1" style="stop-color:#06BEB6"/>
				</linearGradient>
				<path class="st11" d="M30.08,19.29H22.5l-3.79,6.57l3.79,6.57h2.27v-3.3l-0.84-0.85c-0.17,0.11-0.38,0.17-0.6,0.17
					c-0.62,0-1.13-0.51-1.13-1.13c0-0.62,0.5-1.13,1.13-1.13s1.13,0.51,1.13,1.13c0,0.2-0.05,0.38-0.14,0.55c0,0,0,0,0,0l0.45,0.46
					v-3l-0.84-0.85c-0.17,0.11-0.38,0.17-0.6,0.17c-0.62,0-1.13-0.5-1.13-1.13c0-0.62,0.5-1.13,1.13-1.13s1.13,0.5,1.13,1.13
					c0,0.2-0.05,0.38-0.14,0.55l1.02,1.03v7.32h0.69v-9.65c-0.48-0.13-0.84-0.57-0.84-1.09c0-0.62,0.5-1.13,1.13-1.13
					c0.62,0,1.13,0.51,1.13,1.13c0,0.52-0.36,0.97-0.84,1.09v9.65h0.67V25.1l1.02-1.03c-0.09-0.16-0.14-0.35-0.14-0.55
					c0-0.62,0.5-1.13,1.13-1.13c0.62,0,1.13,0.5,1.13,1.13c0,0.62-0.5,1.13-1.13,1.13c-0.22,0-0.42-0.06-0.6-0.17l-0.84,0.85v3
					l0.45-0.46c0,0,0,0,0,0c-0.09-0.16-0.14-0.35-0.14-0.55c0-0.62,0.5-1.13,1.13-1.13c0.62,0,1.13,0.51,1.13,1.13
					c0,0.62-0.5,1.13-1.13,1.13c-0.22,0-0.42-0.06-0.6-0.17l-0.84,0.85v3.3h2.27l3.79-6.57L30.08,19.29z"/>
				<linearGradient id="SVGID_13_" gradientUnits="userSpaceOnUse" x1="28.6897" y1="23.5308" x2="29.8152" y2="23.5308">
					<stop  offset="0" style="stop-color:#1488CC"/>
					<stop  offset="1" style="stop-color:#06BEB6"/>
				</linearGradient>
				<path class="st12" d="M29.82,23.53c0-0.31-0.25-0.56-0.56-0.56c-0.31,0-0.56,0.25-0.56,0.56c0,0.31,0.25,0.56,0.56,0.56
					C29.56,24.09,29.82,23.84,29.82,23.53z"/>
				<linearGradient id="SVGID_14_" gradientUnits="userSpaceOnUse" x1="22.7677" y1="23.5308" x2="23.8932" y2="23.5308">
					<stop  offset="0" style="stop-color:#1488CC"/>
					<stop  offset="1" style="stop-color:#06BEB6"/>
				</linearGradient>
				<path class="st13" d="M22.77,23.53c0,0.31,0.25,0.56,0.56,0.56s0.56-0.25,0.56-0.56c0-0.31-0.25-0.56-0.56-0.56
					S22.77,23.22,22.77,23.53z"/>
				<linearGradient id="SVGID_15_" gradientUnits="userSpaceOnUse" x1="22.7677" y1="27.3266" x2="23.8932" y2="27.3266">
					<stop  offset="0" style="stop-color:#1488CC"/>
					<stop  offset="1" style="stop-color:#06BEB6"/>
				</linearGradient>
				<path class="st14" d="M22.77,27.33c0,0.31,0.25,0.56,0.56,0.56s0.56-0.25,0.56-0.56c0-0.31-0.25-0.56-0.56-0.56
					S22.77,27.02,22.77,27.33z"/>
				<linearGradient id="SVGID_16_" gradientUnits="userSpaceOnUse" x1="25.7375" y1="21.6855" x2="26.8631" y2="21.6855">
					<stop  offset="0" style="stop-color:#1488CC"/>
					<stop  offset="1" style="stop-color:#06BEB6"/>
				</linearGradient>
				<circle class="st15" cx="26.3" cy="21.69" r="0.56"/>
			</g>
		</g>
	</g>
	<g>
		<g>
			<linearGradient id="SVGID_17_" gradientUnits="userSpaceOnUse" x1="134.961" y1="13.9612" x2="134.961" y2="52.7916">
				<stop  offset="0" style="stop-color:#1488CC"/>
				<stop  offset="1" style="stop-color:#06BEB6"/>
			</linearGradient>
			<path class="st16" d="M93.77,20.92c4.91-2.49,10.3-6.34,14.31-6.34c1.8,0,3.31,0.78,4.33,2.66c2.41-0.69,3.31-2.08,3.31-3.31
				c0-1.43-1.23-3.02-4.25-3.02c-4.09,0-8.05,3.31-13.04,6.29c-3.43,2.17-7.36,4.05-11.81,4.33c1.64,2.04,1.43,4.05,1.43,4.95v8.83
				c0,2.86,0.12,3.84-1.06,6.38h7.85c-1.06-2.53-1.06-3.52-1.06-6.38V20.92z M76.15,13.68c3.15,0,5.64,0.29,10.1,4.7l2.78-5.44H66.5
				c1.19,2.53,1.06,3.52,1.06,6.38v15.94c0,2.86,0.12,3.84-1.06,6.38h7.85c-1.06-2.53-1.06-3.52-1.06-6.38v-7.69h5.03
				c2.86,0,4.58,1.19,6.38,3.23v-7.03c-1.8,2.04-3.52,3.23-6.38,3.23h-5.03V13.68H76.15z M180.81,33.14
				c-1.14,3.48-3.92,6.34-7.03,6.34c-4.46,0-7.03-3.97-7.48-8.38c1.31,0.61,3.02,0.98,4.74,0.98c5.19,0,9.44-2.82,9.36-6.95
				c-0.08-3.15-2.78-6.13-8.42-5.93c-7.32,0.25-11.81,5.97-11.81,11.9c0,5.64,3.52,11.2,10.59,11.2c4.05,0,9.2-2.74,10.38-8.91
				L180.81,33.14z M172.35,19.73c1.8,0,3.23,1.92,3.15,4.99c-0.08,3.88-2.41,6.66-5.93,6.66c-1.02,0-2.17-0.29-3.31-0.78
				C165.85,25.94,167.98,19.73,172.35,19.73z M131.55,44.71c0.74,3.47-1.55,9.77-5.44,9.77c-3.27,0-9.2-2.41-9.2-14.84V26.56
				c0-4.99-4.46-7.48-8.99-7.48c-3.88,0-7.4,1.76-7.4,5.23c0,2.04,1.84,3.15,3.68,3.15c1.1,0,2.21-0.41,2.82-1.27
				c-1.39-0.65-2.04-1.88-2.04-3.15c0-2.21,1.84-3.35,3.64-3.35c1.68,0,3.31,1.02,3.35,3.11c0.08,3.84-3.56,5.23-7.24,6.66
				c-3.76,1.43-7.56,2.9-7.56,7.03c0,3.68,3.07,5.72,6.25,5.76c1.92,0.04,4.5-1.14,7.85-1.35c0.29,9.48,7.03,14.23,14.67,14.23
				c6.66,0,11.12-2.94,11.12-6.3C137.06,46.67,134.41,44.95,131.55,44.71z M111.19,39.92c-3.6,0.45-7.93,0.2-7.97-4.01
				c-0.08-4.95,5.85-6.91,7.97-9.24V39.92z M157.47,29.58c0-5.27-0.53-10.51-5.97-10.51c-4.99,0-8.42,7.52-9.57,11.98v-1.47
				c0-5.27-0.53-10.51-5.97-10.51c-4.91,0-8.13,6.75-9.4,11.45V19.44c-2.13,1.14-4.74,1.84-7.15,2.08c1.59,2.04,1.43,4.05,1.43,4.95
				v8.79c0,2.86,0.12,3.84-1.06,6.38h7.85c-1.06-2.53-1.06-3.52-1.06-6.38V32.2c1.47-6.17,4.25-9.73,6.38-9.73
				c2.25,0,3.27,2.33,3.27,6.99v5.89c0,2.86,0.12,3.84-1.06,6.38H143c-1.06-2.53-1.06-3.52-1.06-6.38v-2.45
				c1.43-6.62,4.33-10.42,6.54-10.42c2.25,0,3.27,2.21,3.27,6.46v6.42c0,2.86,0.12,3.84-1.06,6.38h7.85
				c-1.06-2.53-1.06-3.52-1.06-6.38V29.58z"/>
		</g>
	</g>
</g>
</svg>
